<?xml version="1.0" standalone="no"?>
<!DOCTYPE svg PUBLIC "-//W3C//DTD SVG 20010904//EN"
 "http://www.w3.org/TR/2001/REC-SVG-20010904/DTD/svg10.dtd">
<svg version="1.0" xmlns="http://www.w3.org/2000/svg"
 width="144.000000pt" height="120.000000pt" viewBox="0 0 144.000000 120.000000"
 preserveAspectRatio="xMidYMid meet">

<g transform="translate(0.000000,120.000000) scale(0.100000,-0.100000)"
fill="#000000" stroke="none">
<path d="M661 1124 c-27 -20 -51 -72 -51 -113 0 -16 -4 -33 -10 -36 -14 -8
-13 -38 2 -53 6 -6 17 -28 24 -49 13 -35 12 -39 -9 -55 l-22 -17 21 -23 c38
-42 38 -53 1 -21 -56 49 -110 73 -162 73 -43 0 -46 -1 -40 -22 l7 -23 -16 22
c-39 53 -154 50 -174 -5 -9 -23 -11 -24 -11 -6 -1 11 8 29 20 40 12 10 35 47
52 82 22 46 43 71 74 92 31 21 43 25 43 15 0 -8 7 -15 15 -15 8 0 15 7 15 16
0 8 5 12 10 9 6 -4 8 -11 5 -16 -4 -5 -2 -9 4 -9 5 0 12 8 14 18 4 16 5 16 6
0 0 -10 6 -18 12 -18 7 0 9 9 6 21 -4 16 -3 19 5 11 17 -17 2 -40 -28 -44 -33
-4 -45 -28 -15 -28 12 0 21 5 21 10 0 6 6 10 14 10 7 0 19 7 26 15 10 12 8 21
-9 49 -25 39 -50 48 -106 37 -100 -20 -293 -152 -322 -219 -39 -93 -41 -98
-31 -115 13 -24 61 -47 100 -48 23 -1 27 -3 11 -6 -33 -6 -29 -15 25 -50 96
-62 163 -62 221 1 l24 26 -60 0 c-60 0 -119 14 -138 33 -7 7 -3 8 10 3 56 -21
135 -29 161 -17 15 6 29 10 31 7 3 -3 16 -44 30 -92 13 -48 33 -106 44 -128
l20 -41 -25 29 c-13 16 -35 64 -47 107 l-22 78 -20 -25 c-14 -19 -18 -34 -14
-61 6 -36 50 -132 88 -190 38 -60 36 -208 -6 -315 -7 -17 8 -18 235 -18 227 0
242 1 235 18 -41 105 -44 239 -7 308 93 174 106 218 75 258 l-20 25 -22 -79
c-14 -48 -34 -91 -52 -112 l-29 -33 24 45 c14 25 36 85 49 133 14 49 27 90 29
92 2 3 18 -1 35 -7 29 -11 71 -6 153 18 38 10 12 -11 -29 -25 -19 -6 -61 -11
-94 -11 l-60 0 24 -26 c58 -63 125 -63 221 -1 54 35 58 44 26 50 -17 3 -13 5
10 6 39 1 87 24 100 48 10 17 3 40 -36 123 -31 64 -222 191 -317 210 -56 12
-81 3 -106 -36 -17 -28 -19 -37 -9 -49 7 -8 19 -15 26 -15 8 0 14 -4 14 -10 0
-5 9 -10 20 -10 24 0 70 21 70 32 0 13 -17 10 -33 -6 -8 -8 -18 -11 -23 -6 -5
4 -20 10 -34 12 -15 2 -25 10 -26 21 -1 12 -1 13 3 2 6 -20 20 -19 26 3 4 16
5 16 6 0 0 -10 6 -18 12 -18 5 0 8 4 4 9 -3 5 -1 12 5 16 5 3 10 -1 10 -9 0
-9 7 -16 15 -16 8 0 15 7 15 15 0 10 12 6 43 -15 31 -21 52 -46 74 -92 17 -35
40 -72 52 -82 12 -11 21 -29 20 -40 0 -18 -2 -17 -11 6 -20 56 -128 59 -171 5
l-18 -22 6 23 c6 20 3 22 -40 22 -53 0 -114 -27 -164 -74 -35 -32 -34 -18 3
22 l21 23 -22 17 c-21 16 -22 20 -10 53 7 20 19 44 27 53 11 14 11 24 2 50 -7
18 -12 40 -12 50 0 33 -32 87 -61 101 -37 20 -79 19 -108 -1z m225 -664 c-44
-74 -48 -105 -11 -70 14 13 25 19 25 13 0 -5 -9 -18 -20 -28 -24 -22 -29 -75
-5 -55 21 18 19 3 -5 -27 -24 -31 -26 -45 -5 -37 14 6 14 3 1 -22 -8 -16 -19
-45 -24 -64 -9 -33 -10 -33 -11 -7 -1 24 -5 27 -38 28 l-38 1 31 7 c43 11 54
19 54 43 0 16 -4 19 -24 14 -14 -3 -33 -3 -43 1 -13 6 -8 9 22 13 37 5 40 8
43 38 3 28 -1 34 -30 47 l-33 14 33 1 c37 0 44 23 11 40 -25 14 -95 4 -102
-15 -3 -7 1 -22 9 -34 9 -12 11 -21 5 -21 -15 0 -14 -53 1 -68 9 -9 9 -12 0
-12 -16 0 -15 -57 1 -63 6 -3 1 -6 -12 -6 -19 -1 -22 3 -18 21 3 12 2 30 -4
40 -6 12 -6 18 1 18 11 0 14 63 3 74 -4 4 -6 23 -4 42 2 33 2 34 -36 34 -40 0
-63 -14 -63 -37 0 -7 12 -13 28 -14 l27 -1 -27 -11 c-32 -12 -40 -29 -32 -63
5 -20 12 -24 48 -24 30 0 37 -3 26 -10 -8 -6 -27 -7 -41 -4 -17 3 -28 0 -32
-9 -8 -22 6 -36 48 -46 l40 -9 -44 -1 c-42 -1 -43 -2 -37 -28 4 -19 3 -23 -3
-13 -5 8 -12 31 -16 50 -4 19 -15 40 -24 47 -15 11 -14 12 2 13 21 0 21 4 1
36 -9 13 -14 27 -10 31 3 3 6 1 6 -5 0 -7 4 -12 10 -12 14 0 8 31 -13 60 -23
33 -22 47 3 25 18 -16 20 -17 20 -1 0 9 -14 41 -31 72 -34 60 -33 89 1 31 26
-44 78 -71 113 -58 27 10 37 29 37 67 0 14 4 22 10 19 6 -3 10 -17 10 -30 0
-29 43 -65 79 -65 36 0 66 23 93 71 12 22 24 36 26 30 2 -6 -13 -38 -32 -71z"/>
<path d="M390 1001 c0 -11 31 -24 39 -16 3 3 -1 10 -9 15 -19 12 -30 12 -30 1z"/>
</g>
</svg>
